/* XPM */
static char *e5ccefad7a0e467cb8caca0e5a241e82gYR80rsq8LzIatrR[] = {
/* columns rows colors chars-per-pixel */
"64 64 168 2 ",
"   c #1F111F",
".  c #21121F",
"X  c #3F1F1F",
"o  c #1F1321",
"O  c #221422",
"+  c #2C1722",
"@  c #2B1C26",
"#  c #2C1C24",
"$  c #311E24",
"%  c #2D2225",
"&  c #322225",
"*  c #3D2021",
"=  c #372A26",
"-  c #3C2B26",
";  c #3D2D29",
":  c #3A2C33",
">  c #3D2F38",
",  c #3E3037",
"<  c #3E3038",
"1  c #47211F",
"2  c #54271E",
"3  c #582B1F",
"4  c #672E1F",
"5  c #692F1E",
"6  c #69301F",
"7  c #78361C",
"8  c #401F20",
"9  c #412021",
"0  c #412D26",
"q  c #402E29",
"w  c #522621",
"e  c #522820",
"r  c #5F2C20",
"t  c #453229",
"y  c #4A352A",
"u  c #4E3A2B",
"i  c #543F2D",
"p  c #622D20",
"a  c #693728",
"s  c #753520",
"d  c #764219",
"f  c #5E472E",
"g  c #5E4B2F",
"h  c #5E4830",
"j  c #614A2E",
"k  c #685030",
"l  c #6E5833",
"z  c #765D34",
"x  c #795A38",
"c  c #7F6434",
"v  c #7F6438",
"b  c #695E61",
"n  c #756C6F",
"m  c #766D71",
"M  c #843B1F",
"N  c #843B20",
"B  c #B14B1D",
"V  c #BC501D",
"C  c #9F4C26",
"Z  c #806533",
"A  c #866A36",
"S  c #866B39",
"D  c #8B6F38",
"F  c #927338",
"G  c #9B7C3B",
"H  c #C2561D",
"J  c #DA5B1D",
"K  c #E55E1C",
"L  c #FA7F0F",
"P  c #E8651B",
"I  c #F56F15",
"U  c #FE6C17",
"Y  c #F36519",
"T  c #F46919",
"R  c #FE6C1A",
"E  c #FF7615",
"W  c #FF7C12",
"Q  c #FF711A",
"!  c #D76624",
"~  c #FD7223",
"^  c #FF8601",
"/  c #FF8D06",
"(  c #FF840C",
")  c #FF8A09",
"_  c #E09907",
"`  c #FE9205",
"'  c #FE9C02",
"]  c #FE9209",
"[  c #FE990D",
"{  c #FE8E11",
"}  c #FC9312",
"|  c #FEA501",
" . c #FEAB01",
".. c #FDA709",
"X. c #FEAC0B",
"o. c #FEB302",
"O. c #FFBC00",
"+. c #FEBE0B",
"@. c #FDA824",
"#. c #FFC001",
"$. c #FEC10C",
"%. c #FEC211",
"&. c #FEC31D",
"*. c #FEC322",
"=. c #FFC135",
"-. c #B59342",
";. c #BF9943",
":. c #C39F44",
">. c #C5A145",
",. c #CCA646",
"<. c #CDA846",
"1. c #CCA749",
"2. c #CDA849",
"3. c #D2AC46",
"4. c #D9B047",
"5. c #DAB148",
"6. c #FFAB49",
"7. c #E3BB47",
"8. c #E3BA49",
"9. c #E8BF4C",
"0. c #FDBC55",
"q. c #FFB561",
"w. c #EFC54C",
"e. c #FDCE43",
"r. c #F0C54C",
"t. c #F4C84E",
"y. c #F9CD4E",
"u. c #FFD24D",
"i. c #EFC650",
"p. c #FFD551",
"a. c #FFD853",
"s. c #E0C36C",
"d. c #FDD460",
"f. c #FEDA6A",
"g. c #FFDE73",
"h. c #FFDD79",
"j. c #FFE17F",
"k. c #A38E81",
"l. c #A69F97",
"z. c #A59F98",
"x. c #A6A098",
"c. c #AAA198",
"v. c #F1BC95",
"b. c #FFD49E",
"n. c #FFE282",
"m. c #FDE594",
"M. c #FEE99C",
"N. c #DBC3AA",
"B. c #E7CFA7",
"V. c #FEEBA4",
"C. c #FEE3AF",
"Z. c #FFEFB2",
"A. c #FFF4B7",
"S. c #FFF3BB",
"D. c #DCDAC7",
"F. c #DCDBC8",
"G. c #DCDACA",
"H. c #DBDACC",
"J. c #E1DFCE",
"K. c #E0DFD0",
"L. c #FEF7CF",
"P. c #FEF8CF",
"I. c #E1E0D1",
"U. c #FEF7D0",
"Y. c #FEF6D3",
"T. c #FEF8D2",
"R. c #FFFBDB",
"E. c #FFFEE3",
/* pixels */
"u.u.u.u.u.u.u.u.u.u.u.u.u.u.u.u.u.u.u.u.u.u.u.u.u.u.u.u.u.u.u.u.u.u.u.u.u.u.u.u.u.u.u.u.u.u.u.u.u.u.u.u.u.u.u.u.u.u.u.u.u.u.u.u.",
"u.u.u.u.u.u.u.u.u.u.u.u.u.u.u.u.u.u.u.u.u.u.u.u.u.u.u.u.u.u.u.u.u.u.u.u.u.u.u.u.u.u.u.u.u.u.u.u.u.u.u.u.u.u.u.u.u.u.u.u.u.u.u.u.",
"u.u.u.u.u.u.u.u.u.u.u.u.u.u.u.u.u.u.u.u.u.u.u.u.u.u.u.u.u.u.u.u.u.u.u.u.u.u.u.u.u.u.u.u.u.u.u.u.u.u.u.u.u.u.u.u.u.u.u.u.u.u.u.u.",
"u.u.u.u.u.u.u.u.u.u.u.u.u.u.u.u.u.u.u.u.u.u.u.u.u.u.u.u.u.u.u.u.u.u.u.u.u.u.u.u.u.u.u.u.u.u.u.u.u.u.u.u.u.u.u.u.u.u.u.u.u.u.u.u.",
"u.u.u.u.u.u.u.u.u.u.u.u.u.u.u.u.u.u.u.u.u.u.u.u.u.u.u.u.u.u.u.u.u.u.u.u.u.u.u.u.u.u.u.u.u.u.u.u.u.u.u.u.u.u.u.u.u.u.u.u.u.u.u.u.",
"u.u.u.u.u.u.u.u.u.u.u.u.u.u.u.u.u.u.u.u.u.u.u.u.u.u.u.u.u.u.u.u.u.u.u.u.u.u.u.u.u.u.u.u.u.u.u.y.u.u.u.u.u.u.u.u.u.u.u.u.u.u.u.u.",
"u.u.u.u.u.u.u.u.u.u.u.u.u.u.u.u.u.u.u.u.u.u.u.u.u.u.u.u.u.u.u.u.u.u.u.u.u.u.u.u.u.u.y.u.u.u.u.u.u.u.u.u.u.u.u.u.u.u.u.u.u.u.u.u.",
"u.u.u.u.u.u.u.u.u.u.u.u.u.u.u.u.u.u.u.u.u.u.u.u.u.u.u.u.u.u.u.u.u.u.u.u.u.u.u.u.u.u.u.u.u.u.u.u.u.u.u.u.u.u.u.u.u.u.u.u.u.u.u.u.",
"u.u.u.u.u.u.u.u.u.u.u.u.u.u.u.u.u.u.u.u.u.u.u.u.u.u.u.u.u.u.u.u.u.u.u.u.u.u.u.u.u.u.u.u.u.u.u.u.u.u.u.u.u.u.u.y.y.u.u.u.u.u.u.u.",
"u.u.u.u.u.u.u.u.u.u.u.u.u.u.u.u.u.u.u.p.p.u.u.u.u.u.u.u.u.u.p.u.u.u.u.u.u.u.u.u.p.p.u.u.u.u.u.u.u.u.u.u.u.u.y.y.y.u.u.u.u.u.u.u.",
"u.u.u.u.u.u.u.u.u.u.u.u.u.u.u.u.u.3.A A A A A A A A A A A A A A A A A A A A A A A A A A A 5.p.u.u.u.u.u.u.u.u.u.u.u.u.u.u.u.u.u.",
"u.u.u.u.u.u.u.u.u.u.u.u.u.u.u.u.4.S O O O O O O O O O O O O . . . O O . O O . . . . . O O D 5.p.u.u.u.u.u.u.u.u.u.u.u.u.u.u.u.u.",
"u.u.u.u.u.u.u.u.u.u.u.u.u.u.u.w.k @ : : : : : : : : : : : : : : : : : : : : : : : : : : * # l r.u.u.u.u.u.u.u.u.u.u.u.u.u.u.u.u.",
"u.u.u.u.u.u.u.u.u.u.u.y.u.u.8.j # b F.F.F.D.F.F.F.F.F.F.F.F.F.F.F.F.F.F.F.F.F.H.H.F.H.N.! 3 % g 8.u.u.u.u.u.u.u.u.u.u.u.u.u.u.u.",
"u.u.u.u.u.u.u.u.u.u.u.y.u.u.8.-   m E.j.Z.T.h.g.g.g.g.g.g.g.g.g.g.g.g.g.g.g.g.g.n.E.C.q.Q 6 o = 8.u.u.u.u.u.u.u.u.u.u.u.u.y.u.u.",
"u.u.u.u.u.u.u.u.u.u.u.y.u.u.8.q O m T.e.h.m.+.O.O.O.O.O.O.O.O.O.O.O.O.O.O.O.O.O.%.V.0.^ U 6 o = 8.u.u.u.u.u.u.u.u.u.u.u.u.u.u.u.",
"u.u.u.u.u.u.u.u.u.u.u.u.u.u.8.; o m E.R.f.+.O.O.O.O.O.O.O.O.O.O.O.O.O.O.O.#.#.#.#.$...) R 6 o = 8.u.u.u.u.u.u.u.u.u.u.u.u.u.u.u.",
"u.u.u.u.u.u.u.u.u.u.u.u.u.u.8.; o m R.f.*.O.O.O.O.O. .| | | | | | | | | | |  . .|  .' ) R 5 o = 8.u.u.u.u.u.u.u.u.u.u.u.u.u.u.u.",
"u.u.u.u.u.u.u.u.u.u.u.u.u.u.8.; o n U.&.O.O.O.O.O.o.] ) ) ) / / / / / / / / / / / ) ) ( R 5 O - 8.u.u.u.u.u.u.u.u.u.u.u.u.u.u.u.",
"u.u.u.u.u.u.u.u.u.u.u.u.u.u.8.q . n U.*.O.O.O.#.o./ I Y T T Y Y Y T T T T T T T T Y Y T Y p O ; 8.u.u.u.u.u.u.u.u.u.u.u.u.u.u.u.",
"u.u.u.u.u.u.u.u.u.u.u.u.u.u.8.0 O n U.*.O.O.O. .` I 7 2 2 2 2 2 2 2 2 2 2 2 2 2 2 2 2 2 e $ O = 8.u.u.u.u.u.u.u.u.u.u.u.u.u.u.u.",
"u.u.u.u.u.u.u.u.u.u.u.u.u.u.8.0 O n L.*.O.O.O.| ) Y 2 O O o . O O .       o o o o o o o o o t G r.u.u.u.u.u.u.u.u.u.u.u.u.u.u.u.",
"u.u.u.u.u.u.u.u.u.u.u.u.u.u.8.0 O n L.*.O.O.O.| / Y 2 O $ f j j j j j j j j j j j j j j j f G u.u.u.u.u.y.u.u.u.u.u.u.u.u.u.u.u.",
"u.u.u.u.u.u.u.u.u.u.u.u.u.u.8.0 O m L.*.O.O.O.| / Y 2 O y 9.u.y.y.y.y.y.y.y.y.y.y.y.y.y.y.y.y.u.u.u.u.u.y.u.u.u.u.u.u.u.u.u.u.u.",
"u.u.u.u.u.u.u.u.u.u.u.u.u.u.8.0 O m L.*.O.O.O.| / Y 2 O y i.a.p.p.p.p.p.p.p.p.p.p.p.p.p.u.u.u.u.u.u.p.u.u.u.u.y.u.u.u.u.u.u.u.u.",
"u.u.u.u.u.u.u.u.u.u.u.u.u.u.8.0 . m U.*.O.O.O.| / Y 2 O & v S S S S S S S S S S S S <.p.u.u.u.u.u.u.p.u.u.p.u.u.u.u.u.u.u.u.u.u.",
"u.u.u.u.u.u.u.u.u.u.u.u.u.u.8.0 O m U.*.O.O.O.| ) Y 2 O O O O O O O . . . . O O O o c 3.y.u.u.u.u.u.u.u.u.u.u.u.u.u.u.u.u.u.u.u.",
"u.u.u.u.u.u.u.u.u.u.u.u.u.u.8.0 . m U.*.O.O.O.| ) T a > > > < > > > > > , > , ; - * $ u 5.y.u.u.u.u.u.u.u.u.u.u.u.u.u.u.u.u.u.u.",
"u.u.u.u.u.u.u.u.u.u.u.u.u.u.7.0 . m U.*.O.O.O.O. .} B.I.J.K.J.J.J.J.J.J.J.J.I.s._ P s O t >.u.u.u.u.u.u.u.u.u.u.u.u.u.u.u.u.u.u.",
"u.u.u.u.u.u.u.u.u.u.u.u.u.u.7.0 . n U.*.O.O.O.O.o.X.p.V.R.h.Z.R.g.f.f.f.M.E.j.=.' Q M O @ ;.u.u.u.u.u.u.u.u.u.u.u.u.u.u.u.u.u.u.",
"u.u.u.u.u.u.u.u.u.u.u.u.u.u.7.0 . m P.*.O.O.O.O.O.O.O.u.M.+.d.m.+.O.O.O.e.V.&.| / R N O @ ;.u.u.u.u.u.u.u.u.u.u.u.u.u.u.u.u.u.u.",
"u.u.u.u.u.u.u.u.u.u.u.u.u.u.7.0 . n U.*.O.O.O.O.O.O.O.+.+.O.+.+.O.O.O.O.+.$.#. .) Q N O @ ;.u.u.u.u.u.u.u.u.u.u.u.u.u.u.u.u.u.u.",
"u.u.u.u.u.u.u.u.u.u.u.u.u.u.7.0   n U.*.O.O.O.O.O.O. .| | | | | | | | | | |  .' ) Q M O # ;.u.u.u.u.u.u.u.y.u.u.u.u.u.u.u.u.u.u.",
"u.u.u.u.u.u.u.u.u.u.u.u.u.u.8.0   n P.*.O.O.O.O.O.o.] ) ) ) ) ) ) / / / / / / ) ( R M O @ ;.u.u.u.u.u.u.u.u.u.u.u.u.u.u.u.u.u.u.",
"u.u.u.u.u.u.u.u.u.u.u.u.u.u.8.0   n U.*.O.O.O.O. .` E R R R R R R R R R U U R R R R M O # ;.u.u.u.u.u.u.u.y.y.u.u.u.u.u.u.u.u.u.",
"u.u.u.u.y.y.y.u.u.u.u.u.u.u.8.0 . m U.*.O.O.O.o.| L H B B B B B B B B B B B B B B B r & z 4.u.u.u.u.u.u.y.y.y.u.u.y.y.y.u.u.u.u.",
"u.u.u.u.u.u.u.u.u.u.u.u.u.u.8.0   m U.*.O.O.O.| ) Y w O O O O O O O O O O O O O O O - z t.u.u.u.u.u.u.u.u.u.u.u.u.u.u.u.u.u.u.u.",
"u.u.u.u.u.u.u.u.u.u.u.u.u.u.8.0   n U.*.O.O.O.| ) Y w O O @ @ @ @ @ @ @ @ @ @ @ @ # G y.u.u.u.u.u.u.u.u.u.u.u.u.u.u.u.u.u.u.u.u.",
"u.u.u.u.u.u.u.u.u.u.u.u.u.u.8.0 . n U.*.O.O.O.| ) Y w O ; -.>.:.:.:.:.:.:.:.:.:.>.:.8.p.u.u.u.u.u.u.u.u.u.u.u.u.u.u.u.u.y.u.u.u.",
"u.u.u.u.u.u.u.u.u.u.u.u.u.u.8.0 . m U.*.O.O.O.| ) Y w o y t.a.a.a.a.a.a.a.a.p.a.a.a.p.p.p.u.u.u.u.u.u.u.u.u.u.u.u.u.u.u.u.u.u.u.",
"u.u.u.u.u.u.u.u.u.u.u.u.u.u.8.0 . m T.*.O.O.O.| ) Y w O q ;.2.2.2.1.2.2.2.<.<.<.<.<.<.<.<.w.u.u.u.u.u.u.u.u.u.u.u.u.u.u.u.u.u.u.",
"u.u.u.u.u.u.u.u.u.u.u.u.u.u.8.0 . m U.*.O.O.O.| ) Y r $ $ $ $ $ $ $ $ $ # # # # $ $ $ # & -.y.u.u.u.u.u.u.u.u.u.u.u.u.u.u.u.u.u.",
"u.u.u.u.u.u.u.u.u.u.u.u.u.u.8.0 . m U.*.O.O.O.| ( R J J V $ O O O O O O O O O O O O O O O t F u.u.u.u.u.u.u.u.u.u.u.u.u.u.u.u.u.",
"u.u.u.u.u.u.u.u.u.u.u.y.u.u.8.0 . m U.*.O.O.O.o...[ [ 6.v.c.z.x.x.x.x.x.x.l.z.z.z.z.z.k.C 1 t G r.u.u.u.u.u.u.u.u.u.u.u.u.u.u.u.",
"u.u.u.u.u.u.u.u.u.u.u.u.u.u.8.0 O m U.*.O.O.O.O.O.O.O.p.S.S.A.A.A.A.A.A.A.A.A.S.S.S.S.b.~ 5 o = 8.u.u.u.u.u.u.u.u.u.u.u.u.u.u.u.",
"u.u.u.u.u.u.u.u.u.u.u.u.u.u.8.0 . m U.*.O.O.O.O.O.O.O.+.+.+.+.+.+.+.$.$.$.$.$.$.$.$.X.{ R 4 o - 8.u.u.u.u.u.u.u.u.u.u.u.u.u.u.u.",
"u.u.u.u.u.u.u.u.u.u.u.u.u.u.8.0 . m U.*.O.O.O.O.O.O.O.O.O.O.O.O.O.O.O.O.O.O.O.O.O.O.| / R 5 o - 8.u.u.u.u.u.u.u.u.u.u.u.u.u.u.u.",
"u.u.u.u.u.u.u.u.u.u.u.u.p.u.8.0 . m T.*.O.O.O.O.O.O.O.O.O.O.O.O.O.O.O.O.O.O.O.O.O.O.| ) R 6 O - 8.u.u.u.u.u.u.u.u.u.u.u.u.u.u.u.",
"u.u.u.u.u.u.u.u.u.u.u.u.u.u.8.0 O m U.@. .O.' ' ' ' ' ' ' ' ' ' ' ' ' ' ' ' ' ' ' O.| ) R 6 O ; 8.u.u.u.u.u.u.u.u.u.u.u.u.u.u.u.",
"u.u.u.u.u.u.u.u.u.u.u.u.u.u.8.0 O x 0.[ ' | ` ` / / / / ` ` ` ` ` / / / / / ' ` ` | ] E R 6 O ; 8.u.u.u.u.u.u.u.u.u.u.u.u.u.u.u.",
"u.u.u.u.u.u.u.u.u.u.u.u.u.u.8.; O d / / ) ( ( ( ( ( ( ( ( ) ( ( ( ( ( ( ( W ) ) ) ) E R R 6 o = 8.u.u.u.u.u.u.u.u.u.u.u.u.u.u.u.",
"u.u.u.u.u.u.u.u.u.u.u.u.u.u.8.i @ a K K K K K K K K K K K K K K K K K K K K K K K K K K K p @ i 8.u.u.u.u.u.u.u.u.u.u.u.u.u.u.u.",
"u.u.u.u.u.u.u.u.u.u.u.u.u.u.y.8.h + 8 8 8 8 8 8 8 8 8 8 8 8 9 9 8 8 8 * * * X X $ 8 8 9 9 + k 8.y.u.u.u.u.u.u.u.u.u.u.u.u.u.u.u.",
"u.u.u.u.u.u.u.u.u.u.u.u.u.u.u.u.,.z O O O O O O O O O O O O O O O O o o o o o o o O O O O c <.u.u.u.u.u.u.u.u.u.u.u.u.u.u.u.u.u.",
"u.u.u.u.u.u.u.u.u.u.u.u.u.u.u.u.u.3.v v Z Z Z Z c Z Z Z Z Z c Z c c Z Z Z Z Z Z Z Z Z v Z 5.u.u.u.u.u.u.u.u.u.u.u.u.u.u.u.u.u.u.",
"u.u.u.u.u.u.u.u.u.u.u.u.u.u.u.u.u.u.p.u.u.u.u.u.u.u.u.u.u.u.u.u.u.u.u.u.u.u.u.u.u.u.u.u.u.u.u.u.u.u.u.u.u.u.u.u.u.u.u.u.u.u.u.u.",
"u.u.u.u.u.u.u.u.u.u.u.u.u.u.u.u.u.u.u.u.u.u.u.u.u.u.u.u.u.u.u.u.u.u.u.u.u.u.u.u.u.u.u.u.u.u.u.u.u.u.u.u.u.u.u.u.u.u.u.u.u.u.u.u.",
"u.u.u.u.u.u.u.u.u.u.u.u.u.u.u.u.u.u.u.u.u.u.u.u.u.u.u.u.u.u.p.u.u.u.u.u.u.u.u.u.u.u.u.u.u.u.u.u.u.u.u.u.u.u.u.u.u.u.u.u.u.u.u.u.",
"u.u.u.u.u.u.u.u.u.u.u.u.u.u.u.u.u.u.u.u.u.u.u.u.u.u.u.u.u.u.u.u.u.u.u.u.u.u.u.u.u.u.u.u.u.u.u.u.u.u.u.u.u.u.u.u.u.u.u.u.u.u.u.u.",
"u.u.u.u.u.u.u.u.u.u.u.u.u.u.u.u.u.u.u.u.u.u.u.u.u.u.u.u.u.u.u.u.u.u.u.u.u.u.u.u.u.u.u.u.u.u.u.u.u.u.u.u.u.u.u.u.u.u.u.u.u.u.u.u.",
"u.u.u.u.u.u.u.u.u.u.u.u.u.u.u.u.u.u.u.u.u.u.u.u.u.u.u.u.u.u.u.u.u.p.u.u.u.u.p.u.u.u.u.u.u.u.u.u.u.u.u.u.u.u.u.u.u.u.u.u.u.u.u.u.",
"u.u.u.u.u.u.u.u.u.u.u.u.u.u.u.u.u.u.u.u.u.u.u.u.u.u.u.u.u.u.u.u.u.p.p.u.u.u.u.u.u.u.u.u.u.u.u.u.u.u.u.u.u.u.u.u.u.u.u.u.u.u.u.u.",
"u.u.u.u.u.u.u.u.u.u.u.u.u.u.u.u.u.u.u.u.u.u.u.u.u.u.u.u.u.u.u.u.u.u.u.u.u.u.u.u.u.u.u.u.u.u.u.u.u.u.u.u.u.u.u.u.u.u.u.u.u.u.u.u.",
"u.u.u.u.u.u.u.u.u.u.u.u.u.u.u.u.u.u.u.u.u.u.u.u.u.u.u.u.u.u.u.u.u.u.u.u.u.u.u.u.u.u.u.u.u.u.u.u.u.u.u.u.u.u.u.u.u.u.u.u.u.u.u.u."
};
