/* XPM */
static char *_c3279b08b854622a5e8cb6e178543511zscydelOo94mzBZ[] = {
/* columns rows colors chars-per-pixel */
"64 64 231 2 ",
"   c #270D35",
".  c #280D35",
"X  c #2A0F39",
"o  c #2A123C",
"O  c #2A1543",
"+  c #281746",
"@  c #2B1945",
"#  c #2A1B4C",
"$  c #2C1B53",
"%  c #2D1E58",
"&  c #311F54",
"*  c #2C2454",
"=  c #29255A",
"-  c #2D245A",
";  c #332255",
":  c #34245A",
">  c #332B5C",
",  c #3A2C5D",
"<  c #2C2B63",
"1  c #2D2B69",
"2  c #352E63",
"3  c #382F60",
"4  c #2C356A",
"5  c #373264",
"6  c #393265",
"7  c #37376B",
"8  c #34366D",
"9  c #3A396B",
"0  c #282E76",
"q  c #2B3A74",
"w  c #293679",
"e  c #323975",
"r  c #463865",
"t  c #2D437B",
"y  c #33417C",
"u  c #3B467B",
"i  c #49436A",
"p  c #54446B",
"a  c #484975",
"s  c #5B4B75",
"d  c #5A4E7A",
"f  c #52537C",
"g  c #57567D",
"h  c #64557D",
"j  c #1C3A8D",
"k  c #362688",
"l  c #2B3A87",
"z  c #342A93",
"x  c #342B96",
"c  c #2C3E95",
"v  c #2E349C",
"b  c #2E3A9D",
"n  c #373991",
"m  c #2D3BA2",
"M  c #2D3EAA",
"N  c #313BA3",
"B  c #1B4597",
"V  c #1A4299",
"C  c #2D498B",
"Z  c #364C83",
"A  c #35538F",
"S  c #2A4C95",
"D  c #2C5292",
"F  c #2C559C",
"G  c #2E5A9E",
"H  c #37609E",
"J  c #2B43A4",
"K  c #2647AB",
"L  c #2B45AB",
"P  c #2A4BAF",
"I  c #2C5CA4",
"U  c #325DA0",
"Y  c #3650AB",
"T  c #3656AF",
"R  c #254CB6",
"E  c #2B4BB3",
"W  c #2856BC",
"Q  c #2D63AB",
"!  c #3268AC",
"~  c #2B65B1",
"^  c #2D6BB2",
"/  c #2D6CBB",
"(  c #326BB7",
")  c #2D75BD",
"_  c #3773B7",
"`  c #4D558C",
"'  c #665A81",
"]  c #685A82",
"[  c #506695",
"{  c #5A6B94",
"}  c #68698E",
"|  c #73698B",
" . c #6C7396",
".. c #4C77AB",
"X. c #5879A6",
"o. c #667FAA",
"O. c #1A59C9",
"+. c #115CD4",
"@. c #2A5CC1",
"#. c #1662CE",
"$. c #0F67D8",
"%. c #1566D4",
"&. c #1266DB",
"*. c #146BDD",
"=. c #1B75DF",
"-. c #2A68CB",
";. c #346ECC",
":. c #2E76C5",
">. c #3176C5",
",. c #287AD7",
"<. c #156DE0",
"1. c #1671E1",
"2. c #1A75E1",
"3. c #1E7BE3",
"4. c #247EE3",
"5. c #847998",
"6. c #5186B9",
"7. c #7389A8",
"8. c #3481CA",
"9. c #2D81D3",
"0. c #2E86DD",
"q. c #2F88DD",
"w. c #3388D6",
"e. c #338CDB",
"r. c #2483E5",
"t. c #2C85E2",
"y. c #2789E7",
"u. c #2C8BE4",
"i. c #2586E9",
"p. c #2A8CEA",
"a. c #318DE6",
"s. c #2D93EC",
"d. c #2F99EB",
"f. c #3293E5",
"g. c #3294EC",
"h. c #339BED",
"j. c #3A99E9",
"k. c #2D94F1",
"l. c #3496F0",
"z. c #359BF2",
"x. c #3A9EF1",
"c. c #39A2EE",
"v. c #3BA4F2",
"b. c #5798CB",
"n. c #4E94D3",
"m. c #6C9AC3",
"M. c #59A2D7",
"N. c #489BE6",
"B. c #48A5EB",
"V. c #5BADE7",
"C. c #4FB2EF",
"Z. c #5EB1E6",
"A. c #5DB6EC",
"S. c #5FB9EF",
"D. c #42A6F4",
"F. c #44AAF4",
"G. c #49AEF6",
"H. c #46B1F7",
"J. c #4DB3F5",
"K. c #4DB3F8",
"L. c #52B4F5",
"P. c #54BBF6",
"I. c #52B7F8",
"U. c #58BCF8",
"Y. c #66AEE9",
"T. c #67B7E9",
"R. c #60B9EF",
"E. c #77BCE9",
"W. c #61BBF2",
"Q. c #5CC5FB",
"!. c #5DC2FC",
"~. c #66C2F5",
"^. c #64C7FE",
"/. c #63C8FE",
"(. c #6BCDFB",
"). c #77CAF4",
"_. c #71CEFA",
"`. c #76D3FB",
"'. c #7AD6FB",
"]. c #7FD9FC",
"[. c #8F849F",
"{. c #8D8DA7",
"}. c #85A3BB",
"|. c #AFABBD",
" X c #93AEC8",
".X c #A2BECD",
"XX c #C2BCCC",
"oX c #95C3D2",
"OX c #89CDF0",
"+X c #87D7F7",
"@X c #8ADDFB",
"#X c #96DDFA",
"$X c #A8DCE6",
"%X c #BDDBE4",
"&X c #A5DBF9",
"*X c #9BE4FA",
"=X c #99E9FC",
"-X c #B2EBEF",
";X c #ACEAF2",
":X c #A8E9F9",
">X c #B1EDF4",
",X c #B4E9FB",
"<X c #ABF2FC",
"1X c #B1F2F7",
"2X c #B4F5FC",
"3X c #BAF5FC",
"4X c #B7F9FD",
"5X c #BCFAFD",
"6X c #C3C1CF",
"7X c #C4C9D8",
"8X c #D1CDD8",
"9X c #D5DBE3",
"0X c #C0DDF8",
"qX c #E1DEE5",
"wX c #C7E6F7",
"eX c #D7EDF6",
"rX c #C7F3FA",
"tX c #CCF5FC",
"yX c #C4F9FD",
"uX c #CCF9FD",
"iX c #D4F5FD",
"pX c #DAF3F9",
"aX c #D3FAFD",
"sX c #DBFAFC",
"dX c #EBE9EF",
"fX c #E4F6F9",
"gX c #E4FBFD",
"hX c #EBFCFE",
"jX c #F4F2F5",
"kX c #F4FEFE",
"lX c #FDFEFE",
/* pixels */
"/./././././././././././././././././././././././././././././././././././././././././.^././././././././././././././.^.^.^.^././.^.",
"/./././././././././././././././././././././././././././././././././././././././././.^./././././././././././././././././.^./.^.^.",
"/./././././././././././././././././././././././././././././././././././././././././././././././././././././././././././././.^.^.",
"/././././././././././././././././.^./././././././././././././././././././././././././././././././././././././././././././././.^.",
"/./././././././././././././././.^./././././././././././././././././././././././././././././././././././././././././././././././.",
"/././././././././././././././././././././././././././././././././././././././././././.^././././././././././././././././././././.",
"/././././././././././././././././././././././././././././.^./././././././././././.^.^.^.^./././././././././././././.^./././././.",
"/./././././././././././././././././././././././././././././././././././././././././.^.^.^./././././././././././././.^.^././././.",
"/././././././././././././././././././././././././.^.W.W.W.W.R.W.R.R.R.R.R.S.W.^././.^.^././././././././././././././././././././.",
"/././././././././././././././././././././././././.~.A 8 8 8 8 8 8 8 8 8 8 8 ` ~././.^.^././././././././././././././././././././.",
"/././././././././././././././././././.^././././.Z.b.} ' ] ] ] ' ] ] ] ' ' h } b.Z././.^././././././.^./././././././././././././.",
"/./././././././././././././././././.^.^././.M...9 , 8XlXlXlXlXlXlXlXlXlXlXlX6X, u ..M./././././././././././.^.^././././././././.",
"/././././././././././././././././.^.^./.R.M.X.g ' | qXlXhXhXhXkXlXkXhXhXhXlXqX| ' g X.M.R././.^././././././././././././././././.",
"/././././././././.^././././././././././.6.* 7.2XfXlXlXkXyX4X4XaXlXsX4X4X5XkXlXlXfX2X7.; b./././././././././././././././././././.",
"/././.^././././././././././././././.A...o.[..X4XgXlXtX,XE.E.).+X&XOXT.).+XtXgXlXgX4X.X[.o.6.S././.^.^./././././././././././././.",
"/./././././././././././././././././.M.: 5.lXsX3XgXkX@X^.=.2.h.v.H.y.*.s.F.=XyXlXgX2XsXlX| > M./././.^./././././././././././././.",
"/./././././././././././././././././.M.:  .aXsXgXsXrXV.a.E W 3.r.y.-.W ,.a.@X3XkXkXhXsXtX7X|.{ ..W./.^./././././././././././././.",
"/./././././././././././././././.^.~.b.5  .5XsXkXrX*Xt.+.z v %.&.*.W N O.,.+X2XkXlXlXaX2XsXdXp 7 R./.^./././././././././././././.",
"/./././././././././././././././.A.Z [ oX%XkXsXyXY.0.W P z x R R W P J L T OX3XlXhXyX3X2XY.,.2 9 R././.^././././././././././././.",
"/./././././././././././././././.Z.> f 1XaXlXsX2XN.$.P m z x L L L L L b Y OX<XhXiX<X:X:XN.#.< 9 R././.^.^.^.^./././././././././.",
"/./././././././././././././././.Y.3 f ;XaXlXsX2XN.$.b k m L E E E E E P T C./.@X].(.B.,.@.K - 9 R././././.^.^./././././././././.",
"/./././././././././././././././.Y.3 f ;XaXlXgXuXE.N.n k J L c c c c c L W B.P.(.^.K.0.O.R J % 5 S././././././././.^.^././././.^.",
"/./././././././././././././././.Z.3 f >XaXlXlXlXaX;X` k L c o X   X o l W a.h.F.g.*.R z m J $ 5 A././././././././././././././.^.",
"/./././././././././././././././.Z.5 a +X:XaXhXlXaX1X X7.l l D D D D D K P G ^ h.s.3.W v L J $ 3 A././././././././././././././.^.",
"/./././././././././././././././.Z.6 u P.'.<XaXlXaX3X5X$Xr y j.g.a.p.p.W J : e u.s.s.-.E P J $ > A./././././././././././././././.",
"/./././././././././././././././.Z.6 y f.J.`.*XuXgXkXkXfX8X7X*Xm.e e e 1 0 ! Q t q q S E 0 % X > A.^././././././././././././././.",
"^.^.^././././././././././.^././.Z.6 e t.j.U.].:XiXkXkXkXlXkXuX Xs s s s f 8.^ o o + 0 J < + + 5 A./././././././././././././././.",
"^.^././.^././././././././.^././.Z.6 y f.p.=.f.C.+X<X3XyXkXlXlXlXjXjXjXjXqXa - # l ,.C O F ,.,.e.!././././././././././././././.^.",
"/./././.^./././././././././././.Z.5 y j.s.2.r.g.~.+X*X:XiXpXgXkXlXkXhXhXeX5.| } [ / C 4 / p.s.x.!./././././././././././././././.",
"/././././././././././.^.^./././.Z.3 y c.c.h.r.&.g.F.!./.'.@X<XaXlXsX3X3X5XkXhX5X}.; G g.s.s.s.z.!././././././././././.^././././.",
"/./././././././.^.^.^.^.^./././.S.! U H _ h.p.r.r.y.g.j.P.Q.).+X&X#X=X<X3XkXkXgX%X}.X.A n.K.G.K.^./././././././././.^.^.^./././.",
"/./././././././././.^.^.^./././.!.z.:.; C h.h.h.3.&.&.*.h.c.h.v.H.!.(.=X3XkXlXlXgX5X7.: b.~.^.^.^././.^./././././././.^.^./././.",
"/./././././././././.^.^././././.!.l.0./ G q ^ z.s.p.y.r.3.3.2.3.4.g.G.^.'.3XaXlXgX4X$XoX{ u V././././.^./././././././.^.^.^././.",
"/./././././././././././././././.!.x.g.k.^ # D e.w.w.f.s.2.<.*.*.*.r.d.F.Q.*X3XhXgXyX5X4X .a b.Z.^./.^.^././././././././.^.^././.",
"/./././././././././././././././.^.!.L.s.u.0.F > - = 8.z.d.d.s.s.s.3.*.p.c.U.`.2XaXlXaX2X>X$Xa u R./.^.^././././././.^././.^.^./.",
"/.^./././.^./.^.^./././././././././.!.F.f.>.C $ 8 Z ! >.t.p.y.p.h.r.=.r.s.J.(.2XyXgXsXaXyX;Xi 7 R./.^.^././.^.^./././././.^.^./.",
"/././././././.^.^.^././././././.^.R.R.S.6.r r 6 _ w.8 1 #.<.&.3.h.h.s.2.1.J.(.2X5X4XsXlXaX;Xi 9 R./.^.^.^.^.^././././././.^.^./.",
"/./././././.^.^.^.^.^./././././.A.u 9 5  .qX9X$X{ < : - 0 0 0 w t ) h.y.y.K.(.2XuXhXkXlXaX;Xi 9 R./.^.^.^.^././././././.^.^././.",
"/./././././.^.^.^.^././././././.Z.2 , s {.kXgXuX{.s , & O O O O O D e.f.h.B.T.2XaXlXkXkXuX;Xi 7 A.^.^.^.^.^./././././.^.^./././.",
"/./././././././././././././././.Z.3 h dXpX4XsXlXlXdXd 1 :.9.9.,.,.C # ) f.8 ` >XaXlXsX3X5X-Xi < e.F.^.^.^.^././././././././././.",
"/./././././././././././././././.Z.3 g wXtXuXgXlXkXpXd 2 ! / ( ,.k.Q 4 U _ } {.tXsXgXuX3X#XE.6 = 0.D.^./././././././././././././.",
"/./././././././././././././././.Z.5 u ~.#XlXlXlXaX>Xf : : : : A g.g.a.y r qXlXlXgX2X3X3XN.$.= - 0.D.^./././././././././././././.",
"/./././././././././././././././.Z.6 u F.~.&X,XaXgXgX7XXXXXXXXX7X0X0X0X7X6XeXsXlXgX3XOXV.;.K # * 0.D.^./././././././././././././.",
"^.^.^./././././././././././././.Z.6 y s.v.U.+X2XgXlXlXlXlXlXlXlXlXlXlXlXkXyXtXkXgX3XV.$.M k O * 0.D.^./././././././././././././.",
"/.^.^.^././././././././././././.Z.6 y h.s.r.B._.:X3XtXaXhXhXhXkXlXkXhXaXuXhXpX:X).j.;.b m v + * 0.D.^.^.^./././././././././././.",
"/./.^.^.^./././././././.^.^././.Z.5 y h.p.*.g.I.].=X<X2X3X3X3XuXkXiX2X2X3XfXeX`.B.&.K k m J # * 0.D.^.^.^././././././././././.^.",
"/././././././././././././.^.^./.Z.5 y h.z.s.r.2.j.J.(.'.@X@X].+X@X@X].'._.L.N.4.-.v m L L J # * q.D.^.^.^./././././././././././.",
"/./././././././././././././.^./.Z.6 y g.h.h.r.1.p.h.P.Q._._.^.^./././.U.L.a.,.O.R z N E E J + * 0.D.^.^././././././././.^.^././.",
"/./././././././././././././././.Z.3 q 3.i.z.h.s.3.*.s.c.v.c.h.h.c.h.h.3.*.W L z v L E E E J + * 0.D.^./././././././././.^.^././.",
"^./././././././././././././././.A.U F F F G :.d.r.3.r.y.y.y.r.i.y.i.r.%.O.M m v m E c 0 0 0 q D t.D././././././././././.^.^././.",
"/./././././././././././././././.!.z.:.& @ o D h.h.d.2.*.*.*.&.&.*.&.&.R M z x L L P 0   X + :.s.s.D.^././././././.^././.^.^././.",
"/./././././././././././././././.!.g.t./ / / C 4 ) s.p.p.p.p.y.y.p.y.i.,.-.E L E l $ 0 c I / t.l.K.U.^././././././././././././.^.",
"/./././././././././././././././.!.x.h.g.s.k.F # I 9.w.e.g.g.g.g.d.s.s.y.,.P J J w # l @.t.k.g.x.!././././././././././././././.^.",
"/./././././././././././././././.^.!.U.v.z.p.t.0.q O @ = %.1.*.*.*.*.*.&.O.% O X q 9.0.u.p.s.D.J.^./././././././././././././././.",
"/././././././././././././././.^././.!.K.G.D.z.s.F q q q B V V V V V V V j O O 4 I s.s.s.x.D.L.U.^./././././././././././././././.",
"/././././././././.^./././././.^.^./././././.G.s.s.s.s.9.#                 . < u.s.s.s.g.L./././././././././././././././././././.",
"/./././././././././././././.^.^.^.^././././.!.I.I.K.z.p./ ~ ~ ~ ~ ~ ~ ~ ~ Q / p.x.I.I.I.!./././././././././././././././././././.",
"/././././././././././././././././././././././././.^.v.z.z.z.z.z.z.z.z.z.z.z.z.h.F./././././././././././././././././././././././.",
"/./././././././././././././././././././././././././.!.!.!.!.!.!.!.!.!.!.!.!.!.!.!./././././././././././././././././././././././.",
"/././././././././././././././././././././././././././././././././.^.^.^.^.^././././././././././././././.^./././././././././././.",
"/./././././././././././././././././././././././././././././././././.^.^././././././././././././././././././././././././././././.",
"/./././././././././././././././././././././././././././././././././././././././././././././././././././././././././././././.^./.",
"Q././././././././././././././././././././././././././././././././././.^././././././.^.^./.^.^.^.^././././././.^./.^.^./././././.",
"Q.^.^.^.^././.^.^.^.^.^././././././.^.^.^./.^.^.^.^.^.^.^.^.^.^.^.^.^.^./.^.^.^.^.^.^.^.^.^.^.^.^.^.^.^.^.^.^.^.^.^.^./././././."
};
