/* XPM */
static char *_217d64c102148a4ef914fcd85dba646smMI0UULsBhHvj9W[] = {
/* columns rows colors chars-per-pixel */
"64 64 146 2 ",
"   c #1E0C1D",
".  c #250F1E",
"X  c #290F1F",
"o  c #25101F",
"O  c #29101F",
"+  c #250F20",
"@  c #290E20",
"#  c #221121",
"$  c #2A1221",
"%  c #331121",
"&  c #391222",
"*  c #421325",
"=  c #4B1526",
"-  c #4D152A",
";  c #571626",
":  c #5B1627",
">  c #5D1927",
",  c #53162A",
"<  c #5B162B",
"1  c #541A28",
"2  c #5C1A2A",
"3  c #65172D",
"4  c #631A2B",
"5  c #6D1C2B",
"6  c #721D2C",
"7  c #7A1F2E",
"8  c #661731",
"9  c #651831",
"0  c #6C1933",
"q  c #761B33",
"w  c #7E1B39",
"e  c #5B2532",
"r  c #6F202C",
"t  c #75202E",
"y  c #7B212F",
"u  c #7B2130",
"i  c #5C4953",
"p  c #77414C",
"a  c #8E1C2F",
"s  c #901D2F",
"d  c #831A35",
"f  c #8E1E31",
"g  c #841B3A",
"h  c #8B1D3B",
"j  c #911D31",
"k  c #9C1E35",
"l  c #931D3C",
"z  c #9B1F3C",
"x  c #A31F3B",
"c  c #AD1E3C",
"v  c #85222E",
"b  c #88242F",
"n  c #94242F",
"m  c #872231",
"M  c #8E2331",
"N  c #932431",
"B  c #9A2433",
"V  c #912833",
"C  c #9D2A36",
"Z  c #912039",
"A  c #9A203E",
"S  c #A32736",
"D  c #AC2335",
"F  c #AB2936",
"G  c #A1203C",
"H  c #AC213C",
"J  c #B22736",
"K  c #B42937",
"L  c #B92837",
"P  c #B2223C",
"I  c #BB233E",
"U  c #B32938",
"Y  c #BB2D39",
"T  c #BB323C",
"R  c #C5253F",
"E  c #CC243C",
"W  c #C62D3A",
"Q  c #D42F3B",
"!  c #DE2A3F",
"~  c #D4333E",
"^  c #D9313E",
"/  c #E7273F",
"(  c #E8273F",
")  c #E22B3F",
"_  c #EB2A3F",
"`  c #E5343F",
"'  c #ED343F",
"]  c #F5333F",
"[  c #932040",
"{  c #B32540",
"}  c #BA2541",
"|  c #BB2941",
" . c #C52541",
".. c #C92440",
"X. c #C02A40",
"o. c #CD2840",
"O. c #D42740",
"+. c #DB2541",
"@. c #D42941",
"#. c #DE2941",
"$. c #E12740",
"%. c #EE2743",
"&. c #E42941",
"*. c #EA2A41",
"=. c #F12E42",
"-. c #E43144",
";. c #ED3342",
":. c #E63844",
">. c #EF3943",
",. c #E93348",
"<. c #F63442",
"1. c #F93542",
"2. c #F63945",
"3. c #FD3D46",
"4. c #F53C4B",
"5. c #FD3D49",
"6. c #925F66",
"7. c #87686E",
"8. c #B6797B",
"9. c #FF4146",
"0. c #FF424A",
"q. c #F36467",
"w. c #FB6F71",
"e. c #F57A7E",
"r. c #918787",
"t. c #9C8387",
"y. c #918788",
"u. c #938A8C",
"i. c #B98384",
"p. c #B7AFAD",
"a. c #BAB3AE",
"s. c #BBB5B3",
"d. c #BDBAB7",
"f. c #F78B8D",
"g. c #F6AFAF",
"h. c #FFB0AA",
"j. c #F7B1B1",
"k. c #FFB9B6",
"l. c #FBCFCA",
"z. c #FBD0CB",
"x. c #FBD0CC",
"c. c #FCDBD5",
"v. c #F9F1E6",
"b. c #FFFAF1",
"n. c #FFFFFB",
"m. c #FFFFFC",
/* pixels */
"2.<.<.<.<.<.<.<.<.<.] <.<.<.<.<.<.<.<.<.<.<.<.<.<.<.<.<.<.<.<.<.<.<.<.<.<.<.<.<.<.<.] <.<.<.<.] ] <.<.<.<.<.<.<.<.<.<.<.<.<.<.<.",
"2.<.<.<.<.<.<.<.<.<.<.<.<.<.<.<.<.<.<.<.<.<.<.<.<.<.<.<.<.<.<.<.<.<.<.<.<.<.<.<.<.<.<.<.<.<.<.] <.<.<.<.<.<.<.<.<.<.<.<.<.<.<.<.",
"2.<.<.<.<.<.<.<.<.<.<.<.<.<.<.<.<.<.<.<.<.<.<.<.<.<.<.<.<.<.<.<.<.<.<.<.<.<.<.<.<.<.<.<.<.<.<.<.<.<.<.<.<.<.<.<.<.<.<.<.<.<.<.<.",
"2.<.<.<.<.<.<.<.<.<.<.<.<.<.<.<.<.<.<.<.<.<.<.<.<.<.<.<.<.<.<.<.<.<.<.<.<.<.<.<.<.<.<.] <.<.<.<.<.<.<.<.<.<.<.<.<.<.<.<.<.<.<.<.",
"2.<.<.<.<.<.<.<.<.<.<.<.<.<.<.<.<.<.<.<.<.<.<.<.<.<.<.<.<.<.<.<.<.<.<.<.<.<.<.<.<.<.<.<.<.<.<.<.<.<.<.<.<.<.<.<.<.<.<.<.<.<.<.<.",
"2.<.<.<.<.<.<.<.<.<.<.<.<.<.<.<.<.<.<.<.<.<.<.<.<.<.<.<.<.<.<.<.<.<.<.<.<.<.<.<.<.<.<.<.<.<.<.<.<.<.<.<.<.<.<.<.<.<.<.<.<.<.<.<.",
"2.<.<.<.<.<.<.<.<.<.<.<.<.<.<.<.<.<.<.<.<.<.<.<.<.<.<.<.<.<.<.<.<.<.<.<.<.<.<.<.<.<.<.<.<.<.<.<.<.<.<.<.<.<.<.<.<.<.<.<.<.<.<.<.",
"<.<.<.<.<.<.<.<.<.<.<.<.<.<.<.<.<.<.<.<.<.<.<.<.<.<.<.<.<.<.<.<.<.<.<.<.<.<.<.<.<.<.<.<.<.<.<.<.<.<.<.<.<.<.<.<.<.<.<.<.<.<.<.<.",
"<.<.<.<.<.<.<.<.<.<.<.<.<.<.<.<.<.<.<.<.<.<.<.<.<.<.<.<.<.<.<.<.<.<.<.<.<.<.<.<.<.<.<.<.<.<.<.<.<.<.<.<.<.<.<.<.<.<.<.<.<.<.<.<.",
"<.<.<.<.<.<.<.<.<.<.<.<.<.<.<.<.<.<.<.<.<.<.<.<.<.<.<.<.<.<.<.<.<.<.<.<.<.<.<.<.<.<.<.<.<.<.<.<.<.<.<.<.<.<.<.<.<.<.<.<.<.<.<.<.",
"<.<.<.<.<.<.<.<.<.<.<.<.<.<.<.<.<.<.<.<.<.<.<.<.<.<.<.<.<.<.<.<.<.<.<.<.<.<.<.<.<.<.<.<.<.<.<.<.<.<.<.<.<.<.<.<.<.<.<.<.<.<.<.<.",
"<.<.<.<.<.<.<.<.<.<.<.<.<.<.<.<.<.<.<.<.<.<.<.<.<.<.<.<.<.<.<.<.<.<.<.<.<.<.<.<.<.<.<.<.<.<.<.<.<.<.<.<.<.<.<.<.<.<.<.<.<.<.<.<.",
"<.<.2.2.<.<.<.<.<.<.<.<.<.<.<.<.<.<.<.<.<.<.<.<.<.<.<.<.<.<.<.<.<.<.<.<.<.<.<.<.<.<.<.<.<.<.<.<.<.<.<.<.<.<.<.<.<.<.<.<.<.<.<.<.",
"<.<.<.2.<.<.<.<.<.<.<.<.<.<.<.<.<.<.<.<.<.<.<.<.<.<.<.<.<.<.<.<.<.<.<.<.<.<.<.<.<.<.<.<.<.<.<.<.<.<.<.<.<.<.<.<.<.<.<.<.<.<.<.<.",
"<.<.<.<.<.<.<.<.<.<.<.<.<.<.<.<.<.<.<.<.<.1.1.1.1.1.<.<.<.<.<.<.<.<.<.<.<.1.1.1.2.<.<.<.<.<.<.<.<.<.<.<.<.<.<.<.<.<.<.<.<.<.<.<.",
"<.<.<.<.<.<.<.<.<.<.<.<.<.<.<.<.<.<.<.<.=.J v v v b Q <.<.<.<.<.<.<.<.<.*.S m m m v K <.<.<.<.<.<.<.<.<.<.<.<.<.<.<.<.<.<.<.<.<.",
"2.<.<.<.<.<.<.<.<.<.<.<.<.<.<.<.<.<.<._ / 6 # $ $ $ K <.<.<.<.<.<.<.<.*.$.2 # # $ o 7 ] <.<.<.<.<.<.<.<.<.<.<.<.<.<.<.<.<.<.<.<.",
"2.<.<.<.<.<.<.<.<.<.<.<.<.<.<.<.<.<.<.B ; 7.s.s.s.p.p 4 W 1.<.<.<.<.;.v > t.d.i.T T V > N <.<.<.<.<.<.<.<.<.<.<.<.<.<.<.<.<.<.<.",
"2.<.<.<.<.<.<.<.<.<.2.2.<.<.<.<.<.<.<.t   u.m.n.b.v.i X K 1.<.<.<.<.;.> $ s.m.k.0.0.C . 5 <.<.<.<.<.<.<.<.<.<.<.<.<.<.<.<.<.<.<.",
"<.<.<.<.<.<.<.<.<.<.<.2.<.<.<.<.<.<.<.y   y.n.c.w.q.e X K 1.<.<.<.<.' > $ a.m.j.*.;.N X 5 <.<.<.<.<.<.<.<.<.<.<.<.<.<.<.<.<.<.<.",
"<.<.<.<.<.<.<.<.<.<.<.<.<.<.<.<.<.<.<.y   y.m.x.0.1.6 * D ` <.<.<.<.' > $ a.m.g.&.*.a X 5 <.<.<.<.<.<.<.<.<.<.<.<.<.<.<.<.<.<.<.",
"<.<.<.<.<.<.<.<.<.<.<.<.<.<.<.<.<.<.<.7   y.m.x.0.3.>.` 6 5 ;.<.<.<.' > $ a.m.g.*.*.a X 5 <.<.<.<.<.<.<.<.<.<.<.<.<.<.<.<.<.<.<.",
"<.<.<.<.<.<.<.<.<.<.<.<.<.<.<.<.<.<.<.7   y.m.x.0.3.3.3.b > W ` <.<.;.> $ a.n.g.*.*.a X 5 <.<.<.<.<.<.<.<.<.<.<.<.<.<.<.<.<.<.<.",
"<.<.<.<.<.<.<.<.<.<.<.<.<.<.<.<.<.<.<.7   r.n.l.0.9.3.3.2.r % F 1.<.;.> $ a.n.g.*.*.a X 5 <.<.<.<.<.<.<.<.<.<.<.<.<.<.<.<.<.<.<.",
"<.<.<.<.<.<.<.<.<.<.<.<.<.<.<.<.<.<.<.7   r.n.l.0.9.3.3.3.C 4 M Y ;.;.> $ a.n.g.*.*.s X 5 <.<.<.<.<.<.<.<.<.<.<.<.<.<.<.<.<.<.<.",
"<.<.<.<.<.<.<.<.<.<.<.<.<.<.<.<.<.<.<.7   y.n.z.0.9.3.9.3.3.2.1 & ^ <.> $ s.n.g.*.*.j X 5 <.<.<.<.<.<.<.<.<.2.<.<.<.<.<.<.<.<.<.",
"<.<.<.<.<.<.<.<.<.<.<.<.<.<.<.<.<.<.<.7 . y.n.l.0.2.5.0.9.9.2.V y S F = $ s.n.g.*.*.j X 5 <.<.<.<.<.<.<.<.2.2.<.<.<.<.<.<.<.<.<.",
"<.<.<.<.<.<.<.<.<.<.<.<.<.<.<.<.<.<.<.y . u.m.l.,.*.5.0.0.3.3.3.:.* X X $ s.m.j.*.*.j X 5 <.<.<.<.<.<.<.<.<.<.<.<.<.<.<.<.<.<.<.",
"<.<.<.<.<.<.<.<.<.<.<.<.<.<.<.<.<.<.<.u + 6.h.f.*.*.;.2.5.5.5.5.>.f 6 & $ 8.h.e.*.*.j X 5 <.<.<.<.<.<.<.<.<.<.<.<.<.<.<.<.] <.<.",
"<.<.<.<.<.<.<.<.<.<.<.<.<.<.<.<.<.<.<.u # N 3.1.*.*.$.$.4.0.5.5.2.*.#., $ Y 3.<.( *.s X 5 <.<.<.<.<.<.<.<.<.<.<.<.<.<.<.] ] ] <.",
"<.<.<.<.<.<.<.<.<.<.<.<.<.<.<.<.<.<.<.u # N 9.2.*.&...I -.2.5.5.5.<.-.2 $ T 9.2./ *.a X 5 <.<.<.<.<.<.<.<.<.<.<.<.<.<.<.] <.<.<.",
"<.<.<.<.<.<.<.<.<.<.<.<.<.<.<.<.<.<.<.u # N 9.2.&.$.x h  .&.;.5.5.5.2.2 $ T 9.2./ *.s X 5 <.<.<.<.<.<.<.<.<.<.<.<.<.<.<.<.] <.<.",
"<.<.<.<.<.<.<.<.<.<.<.<.<.<.<.<.<.<.<.u # N 3.2.&.$.d 8 G  .@.2.2.5.2.B 7 ~ 9.<./ *.s X 5 <.<.<.<.<.<.<.<.<.<.<.<.<.<.<.<.<.<.<.",
"<.<.<.<.<.<.<.<.<.<.<.<.<.<.<.<.<.<.<.y # N 3.2.&.#.< + 0 h P &.*.5.3.*.*.2.9.<./ *.a X 5 <.<.<.<.<.<.<.<.<.<.<.<.<.<.<.<.<.<.<.",
"<.<.<.<.<.<.<.<.<.<.<.<.<.<.<.<.<.<.<.y # N 3.2.&.#.< X , 9 l +.$.5.5.2.<.2.9.2./ *.f X 5 <.<.<.<.<.<.<.<.<.<.<.<.<.<.<.<.<.<.<.",
"<.<.<.<.<.<.<.<.<.<.<.<.<.<.<.<.<.<.<.y # N 5.2.*.$.: X X X 3 ..@.5.5.3.3.9.9.2.*.*.f X 6 <.<.<.<.<.<.<.<.<.<.<.<.<.<.<.<.<.<.<.",
"<.<.<.<.<.<.<.<.<.<.<.<.<.<.<.<.<.<.<.y o N 0.5.*.#.< @ @ + < P } >.2.5.0.0.0.2.*.*.j X 6 <.<.<.<.<.<.<.<.<.<.<.<.<.<.<.<.<.<.<.",
"<.<.<.<.<.<.<.<.<.<.<.<.<.<.<.<.<.<.<.y o N 0.5.*.$.: X X + - h z @.$.5.0.0.0.2.*.*.j o 6 <.<.<.<.<.<.<.<.<.<.<.<.<.<.<.<.<.<.<.",
"<.<.<.<.<.<.<.<.<.<.<.<.<.<.<.<.<.<.<.y # V 0.5.*.! < X * - , 8 q I  .,.2.2.0.2.*.*.j o 6 <.<.<.<.<.<.<.<.<.<.<.<.<.<.<.<.<.<.<.",
"<.<.<.<.<.<.<.<.<.<.<.<.<.<.<.<.<.<.<.u # n 9.2._ ! < $ 0 [ 9 X & g l O.&.2.0.2.*.*.f o 5 <.<.<.<.<.<.<.<.<.<.<.<.<.<.<.<.<.<.<.",
"2.<.<.<.<.<.<.<.<.<.<.<.<.<.<.<.<.<.<.u # n 9.5._ ) < $ f } l < * < 9 H I &.2.;.*.*.f o 5 <.<.<.<.<.<.<.<.<.<.<.<.<.<.<.<.<.<.<.",
"2.<.<.<.<.<.<.<.<.<.<.<.<.<.<.<.<.<.<.u # n 9.5.*.) : $ D %...z - O $ q l E *.&.&.*.j o 5 <.<.<.<.<.<.<.<.<.<.<.<.<.<.<.<.<.<.<.",
"2.<.<.<.<.<.<.<.<.<.<.<.<.<.<.<.<.<.<.y # V 9.5.*.) : $ J =.#.R k 3 < < < P +.$.*.*.j O 5 <.<.<.<.<.<.<.<.<.<.<.<.<.<.<.<.<.<.<.",
"<.<.<.<.<.<.<.<.<.<.<.<.<.<.<.<.<.<.<.u + V 5.5.*.$.< $ U 1.=.*.#.z h * $ k +.+.*.*.j O 5 <.<.<.<.<.<.<.<.<.<.<.<.<.<.<.<.<.<.<.",
"<.<.<.<.<.<.<.<.<.<.<.<.<.<.<.<.<.<.<.u + q X.| P H = $ K 1.<.<.*.I H = $ d c H P P 6 O 5 <.<.<.<.<.<.<.<.<.<.<.<.<.<.<.<.<.<.<.",
"<.<.<.<.<.<.<.<.<.<.<.<.<.<.<.<.<.<.<.u + < g g g w * O K 1.<.<.<.O.R , $ 0 g d g g < o 5 <.<.<.<.<.<.<.<.<.<.<.<.<.<.<.<.<.<.<.",
"<.<.<.<.<.<.<.<.<.<.<.<.<.<.<.<.<.<.<.u + % * * * * $ O J 1.<.<.<.;.-.Z q - * * * * & X 5 <.<.<.<.<.<.<.<.<.<.<.<.<.<.<.<.<.<.<.",
"<.<.<.<.<.<.<.<.<.<.<.<.<.<.<.<.<.<.<.m & & % % % % & * L 1.<.<.<.<.2.{ A - % % % % & & 7 <.<.<.<.<.<.<.<.<.<.<.<.<.<.<.<.<.<.<.",
"<.<.<.<.<.<.<.<.<.<.<.<.<.<.<.<.<.<.<.! E x g g g h I E _ <.<.<.<.<.<.$.O.z g g h g x E ! <.<.<.<.<.<.<.<.<.<.<.<.<.<.<.<.<.<.<.",
"<.<.<.<.<.<.<.<.<.<.<.<.<.<.<.<.<.<.<.<.=.o.{ } } | #.*.<.<.<.<.<.<.<.*.*. .} } } I @.*.<.<.<.<.<.<.<.<.<.<.<.<.<.<.<.<.<.<.<.<.",
"<.<.<.<.<.<.<.<.<.<.<.<.<.<.<.<.<.<.<.<.<.<.<.<.<.<.<.<.<.<.<.<.<.<.<.<.<.<.<.<.<.<.<.<.<.<.<.<.<.<.<.<.<.<.<.<.<.<.<.<.<.<.<.<.",
"2.<.<.<.<.<.<.<.<.<.<.<.<.<.<.<.<.<.<.<.<.<.<.<.<.<.<.<.<.<.<.<.2.<.<.<.<.<.<.<.<.<.<.<.<.<.<.<.<.<.<.<.<.<.<.<.<.<.<.<.<.<.<.<.",
"2.<.<.<.<.<.<.<.<.<.<.<.<.<.<.<.<.<.<.<.<.<.<.<.<.<.<.<.<.<.<.<.<.<.<.<.<.<.<.<.<.<.<.<.<.<.<.<.<.<.<.<.<.<.<.<.<.<.<.<.<.<.<.<.",
"2.<.<.<.<.<.<.<.<.<.<.<.<.<.<.<.<.<.<.<.<.<.<.<.<.<.<.<.<.<.<.<.<.<.<.<.<.<.<.<.<.<.<.<.<.<.<.<.<.<.<.<.<.<.<.<.<.<.<.<.<.<.<.<.",
"<.<.<.<.<.<.<.<.<.<.<.<.<.<.<.<.<.<.<.<.<.<.<.<.<.<.<.<.<.<.<.<.<.<.<.<.<.<.<.<.<.<.<.<.<.<.<.<.<.<.<.<.<.<.<.<.<.<.<.<.<.<.<.<.",
"<.<.<.<.<.<.<.<.<.<.<.<.<.<.<.<.<.<.<.<.<.<.<.<.<.<.<.<.<.<.<.<.<.<.<.<.<.<.<.<.<.<.<.<.<.<.<.<.<.<.<.<.<.<.<.<.<.<.<.<.<.<.<.<.",
"<.<.<.<.<.<.<.<.<.<.<.<.<.<.<.<.<.<.<.<.<.<.<.<.<.<.<.<.<.<.<.<.<.<.<.<.<.<.<.<.<.<.<.<.<.<.<.<.<.<.<.<.<.<.<.<.<.<.<.<.<.<.<.<.",
"<.<.<.<.<.<.<.<.<.<.<.2.<.<.<.<.<.<.<.<.<.<.<.<.<.<.<.<.<.<.<.<.<.<.<.<.<.<.<.<.<.<.<.<.<.<.<.<.<.<.<.<.<.<.<.<.<.<.<.<.<.<.<.<.",
"2.<.<.<.<.<.<.<.<.<.<.<.<.<.<.<.<.<.<.<.<.<.<.<.<.<.<.<.<.<.<.<.<.<.<.<.<.<.<.<.<.<.<.<.<.<.<.<.<.<.<.<.<.<.<.<.<.<.<.<.<.<.<.<.",
"2.<.<.<.<.<.<.<.<.2.<.<.<.<.<.<.<.<.<.<.<.<.<.<.<.<.<.<.<.<.<.<.<.<.<.<.<.<.<.<.<.<.<.<.<.<.<.<.<.<.<.<.<.<.<.<.<.<.<.<.<.<.<.<.",
"2.<.<.<.<.<.<.<.<.<.<.<.<.<.<.<.<.<.<.<.<.<.<.<.<.<.<.<.<.<.2.<.<.<.<.<.<.<.<.<.<.<.<.<.<.<.<.<.<.<.<.<.<.<.<.<.<.<.<.<.<.<.<.<.",
"<.<.<.<.<.<.<.<.<.<.<.<.<.<.<.<.<.<.<.<.<.<.<.<.<.<.2.2.<.<.<.<.<.<.<.<.<.<.<.<.<.<.<.<.<.<.<.<.<.<.<.<.<.<.<.<.<.<.<.<.<.<.<.<.",
"<.<.<.<.<.<.<.<.<.<.<.<.<.<.<.<.<.<.<.<.<.<.<.<.<.<.<.<.<.<.<.<.<.<.<.<.<.<.<.<.<.<.<.<.<.<.<.<.<.<.<.<.<.<.<.<.<.<.<.<.<.<.<.<.",
"<.<.<.<.<.<.<.<.<.<.<.<.<.<.<.<.<.<.<.<.<.<.<.<.<.<.<.<.<.<.<.<.<.<.<.<.<.<.<.<.<.<.<.<.<.<.<.<.<.<.<.<.<.<.<.<.<.<.<.<.<.<.] ] "
};
