/* XPM */
static char *_23eccc522e84a2b93be09ff68ca8215LYDpZSmQeCXsbdWF[] = {
/* columns rows colors chars-per-pixel */
"64 64 222 2 ",
"   c #271327",
".  c #281126",
"X  c #2A152A",
"o  c #2C1A2D",
"O  c #2C1C31",
"+  c #301D35",
"@  c #2D222D",
"#  c #2E2232",
"$  c #2E2538",
"%  c #312436",
"&  c #31233A",
"*  c #35293B",
"=  c #2D343A",
"-  c #362943",
";  c #2E3D41",
":  c #343643",
">  c #383F46",
",  c #36334A",
"<  c #39364C",
"1  c #3A3C4C",
"2  c #3A3A52",
"3  c #3B3D52",
"4  c #2E4D4B",
"5  c #33474B",
"6  c #3C434E",
"7  c #32504E",
"8  c #3C4254",
"9  c #384955",
"0  c #3E4B55",
"q  c #355952",
"w  c #3D525B",
"e  c #34665B",
"r  c #376A5C",
"t  c #3F5462",
"y  c #396962",
"u  c #357967",
"i  c #3C7669",
"p  c #367D69",
"a  c #3E7470",
"s  c #434954",
"d  c #4F465F",
"f  c #424C5A",
"g  c #4C4B5E",
"h  c #524C5A",
"j  c #43515B",
"k  c #485458",
"l  c #52545E",
"z  c #46645F",
"x  c #49675C",
"c  c #4A725F",
"v  c #4E4760",
"b  c #4E4A61",
"n  c #514761",
"m  c #504A61",
"M  c #485C67",
"N  c #595864",
"B  c #476561",
"V  c #466862",
"C  c #486A66",
"Z  c #44646D",
"A  c #58646A",
"S  c #497867",
"D  c #56716D",
"F  c #496973",
"G  c #486C75",
"H  c #596572",
"J  c #5C6B74",
"K  c #497477",
"L  c #4C7B7F",
"P  c #597E72",
"I  c #56797C",
"U  c #626373",
"Y  c #656D74",
"T  c #696E7A",
"R  c #67757E",
"E  c #3A826C",
"W  c #368A6F",
"Q  c #3B8B6E",
"!  c #3E8275",
"~  c #368E73",
"^  c #398D74",
"/  c #3B9274",
"(  c #3C9678",
")  c #4E856A",
"_  c #52866D",
"`  c #56936F",
"'  c #438476",
"]  c #478877",
"[  c #5A8275",
"{  c #548B71",
"}  c #419A77",
"|  c #439D79",
" . c #4B9D7A",
".. c #569473",
"X. c #579678",
"o. c #5A967A",
"O. c #5A9C7B",
"+. c #44A27C",
"@. c #4BA37C",
"#. c #4FA87F",
"$. c #5BA27D",
"%. c #5AA77E",
"&. c #52AB7F",
"*. c #4E7A80",
"=. c #527B82",
"-. c #637C81",
";. c #747A85",
":. c #807C8C",
">. c #548484",
",. c #588689",
"<. c #568F8A",
"1. c #5A8A8D",
"2. c #4D9982",
"3. c #5C9392",
"4. c #68888A",
"5. c #77858C",
"6. c #6D8E92",
"7. c #768B92",
"8. c #699B99",
"9. c #799398",
"0. c #759C9B",
"q. c #7A9D9F",
"w. c #4DAA82",
"e. c #5DA782",
"r. c #52AC82",
"t. c #53B384",
"y. c #5AB585",
"u. c #56B886",
"i. c #5BB986",
"p. c #5DBC89",
"a. c #64A988",
"s. c #62B586",
"d. c #62B886",
"f. c #63B18D",
"g. c #62BD89",
"h. c #65A19B",
"j. c #6BA29D",
"k. c #6DB795",
"l. c #6BA7A3",
"z. c #77ADA9",
"x. c #76B2A9",
"c. c #7AB6B3",
"v. c #65C48D",
"b. c #68C78E",
"n. c #67C98F",
"m. c #69C98F",
"M. c #68C790",
"N. c #6AC495",
"B. c #67C991",
"V. c #69C990",
"C. c #888A93",
"Z. c #88939A",
"A. c #8A999E",
"S. c #929299",
"D. c #879EA1",
"F. c #8C9DA2",
"G. c #989EA6",
"H. c #8EA1A3",
"J. c #84A8AA",
"K. c #8BABAB",
"L. c #94A2A6",
"P. c #84B6AD",
"I. c #89B7B2",
"U. c #84BBB4",
"Y. c #98BBB7",
"T. c #A2A5AD",
"R. c #A7ADB3",
"E. c #A5BAB9",
"W. c #8AC3BD",
"Q. c #97C5BD",
"!. c #A2C0BD",
"~. c #93C4C1",
"^. c #99C4C0",
"/. c #9BCAC4",
"(. c #9ECDC8",
"). c #A4CBC4",
"_. c #A8C9C5",
"`. c #B2C5C6",
"'. c #B4CCC6",
"]. c #A5D3CA",
"[. c #AAD5CB",
"{. c #ABD3CD",
"}. c #B3D5CE",
"|. c #B6D7CE",
" X c #B5DCD3",
".X c #BDDCD3",
"XX c #BCDAD7",
"oX c #BDE3DA",
"OX c #C4D6CF",
"+X c #C1DFD6",
"@X c #C2DBD9",
"#X c #DBDBDF",
"$X c #C4E5DB",
"%X c #C9E4DC",
"&X c #C4E9DE",
"*X c #CCEADC",
"=X c #D2EADE",
"-X c #E0DFE3",
";X c #CDEDE2",
":X c #D3ECE4",
">X c #DAEEE8",
",X c #CEF0E4",
"<X c #D4F2E5",
"1X c #D9F3E6",
"2X c #D6F5E8",
"3X c #DDF5EA",
"4X c #DCF8EA",
"5X c #E7E6E9",
"6X c #E8E7EA",
"7X c #EAE9EC",
"8X c #E3F5EC",
"9X c #E9F7EE",
"0X c #E5FAED",
"qX c #EAFAEE",
"wX c #EBF5F2",
"eX c #E6F8F1",
"rX c #ECFBF2",
"tX c #F4FEF5",
"yX c #F9FFF6",
"uX c #F5FCF8",
"iX c #FCFFFC",
"pX c #FEFFFE",
/* pixels */
"B.B.B.B.B.B.B.B.m.m.m.m.m.m.m.m.m.B.m.m.B.B.B.B.m.m.m.m.m.m.m.m.m.m.m.B.B.B.B.B.B.B.m.m.m.m.m.B.B.B.B.B.B.m.m.m.m.B.B.B.B.B.B.B.",
"B.B.B.B.B.B.B.B.m.m.m.m.m.m.m.m.m.m.m.m.m.m.m.m.m.m.m.m.m.m.m.m.m.m.B.B.B.B.B.B.B.m.m.m.m.m.m.m.B.m.m.m.m.m.m.m.m.m.m.m.m.m.m.B.",
"B.n.m.B.B.B.B.m.m.m.m.m.m.m.m.b.m.m.m.m.m.m.m.m.m.m.m.m.m.m.m.m.m.m.B.m.B.B.B.B.m.m.b.b.m.m.m.B.B.B.B.m.m.m.m.m.m.m.m.m.m.m.m.B.",
"B.B.B.B.B.B.m.m.m.m.m.m.m.m.m.b.m.m.m.m.m.m.m.m.m.m.m.m.m.B.B.B.B.B.B.B.B.B.B.m.m.m.m.b.m.m.m.m.M.M.B.m.m.m.m.m.m.m.m.m.m.m.m.B.",
"B.B.B.B.M.M.B.B.B.B.B.B.m.m.b.b.m.m.m.m.b.m.b.m.m.m.m.m.m.B.B.B.B.M.B.m.m.m.B.m.m.m.m.m.m.m.b.b.b.M.B.m.m.m.m.m.m.m.m.m.m.m.m.B.",
"B.B.B.M.M.M.B.B.B.B.B.B.m.m.b.b.m.m.m.b.M.m.B.m.m.m.m.m.m.m.m.B.B.B.B.B.m.m.m.m.m.m.m.m.m.m.b.b.b.b.m.m.m.m.m.b.b.m.m.m.m.m.m.B.",
"B.B.m.M.M.M.M.B.B.B.B.B.m.m.m.b.m.m.m.m.m.m.m.m.m.m.m.m.m.m.m.m.m.m.m.m.m.m.m.m.m.m.m.m.m.m.m.m.b.b.m.m.m.m.m.m.m.m.m.m.m.m.m.B.",
"B.B.m.M.b.b.M.B.B.B.m.m.m.m.m.m.m.m.m.m.m.m.m.m.m.m.m.m.m.m.m.m.b.b.m.m.m.m.m.m.m.m.m.m.m.m.m.m.m.m.m.m.m.m.m.m.b.b.m.m.b.B.m.B.",
"B.B.m.b.b.b.m.B.m.m.m.m.m.m.m.m.m.m.b.m.m.m.m.m.m.m.m.m.m.m.m.m.m.m.m.m.m.m.m.b.b.m.b.m.m.m.m.m.m.m.b.m.m.b.b.b.b.b.b.b.b.B.B.m.",
"B.m.m.m.m.B.B.B.B.b.b.b.b.m.m.m.m.b.b.b.m.m.m.m.m.m.m.m.m.m.m.m.m.m.b.b.b.b.b.b.m.m.m.m.m.m.m.m.m.b.b.b.b.b.b.b.b.b.b.b.M.B.m.B.",
"B.B.B.B.B.B.B.m.b.b.b.b.m.m.m.m.m.m.m.m.m.m.m.m.m.m.m.m.m.m.m.m.m.b.b.b.b.b.b.m.m.m.m.m.m.m.m.m.b.M.b.b.b.b.b.b.b.b.b.b.B.B.m.B.",
"B.B.B.B.B.B.m.m.b.b.b.m.m.m.m.m.m.m.m.b.b.b.b.m.m.m.m.m.b.b.m.m.m.b.b.b.b.b.b.m.m.m.m.m.m.m.b.m.b.b.b.b.b.b.b.m.m.m.b.m.B.m.m.B.",
"B.B.B.B.B.m.m.m.b.m.m.m.m.m.m.m.b.m.b.b.b.b.b.m.m.m.m.m.b.b.b.b.m.b.b.b.b.b.b.b.m.m.m.m.b.b.m.m.m.b.b.b.b.b.b.m.m.m.m.m.m.m.m.B.",
"B.B.B.B.B.m.m.m.m.b.m.m.m.m.b.b.b.b.b.b.b.b.b.b.m.m.m.m.b.b.b.b.b.b.v.v.b.b.M.b.B.m.m.m.m.b.b.b.b.b.b.b.b.b.b.m.m.m.m.b.b.m.m.n.",
"B.B.B.M.m.m.m.m.m.m.m.m.e.V B B B B B { m.m.m.m.m.m.m.B...z z z z B B O.B.B.M.M.B.m.m.B...B V B B B z ..m.m.m.m.m.m.m.b.b.m.m.n.",
"B.B.B.B.m.m.m.m.m.m.b.g.o.b b b b v d D d.v.m.m.m.m.v.g.P d m d d m n [ d.v.B.m.m.m.v.d.P d b b m m n P d.v.m.m.m.m.b.b.m.m.m.n.",
"B.B.B.B.B.m.m.m.m.m.d.j T -X5X5X5X5X7XT.1 { m.m.m.m.$.w G.7X5X5X5X6X7XS.6 $.m.m.m.B.O.0 L.7X5X5X5X6X7XS.1 X.B.m.m.m.m.m.m.m.m.n.",
"B.B.B.B.B.m.m.m.B.B.s.8 U wXpXpXpXpXwXG.& ) m.m.m.V.O.3 L.pXpXpXpXuXwXC.* X.m.b.m.V.o.2 L.iXpXpXpXtXeXC.& ) p.v.m.m.m.m.m.m.m.n.",
"B.m.B.B.B.m.B.B.B.B.s.8 U ;XwXpXyX0X(.-.  S m.m.m.m.O.8 F.3XuXpXtX=X/.Y X ..m.b.m.B.O.3 H.3XuXpX0X$X~.J   e } v.m.m.m.m.m.m.m.n.",
"m.m.m.B.B.M.B.B.B.B.s.8 U ;XwXpXyX0X/.-.  S m.m.m.m.O.8 F.3XuXpXtX=X/.J X ..m.b.m.B.O.3 H.3XtXpX0X$XU.H   e } v.m.m.m.m.m.m.m.B.",
"n.m.m.m.B.B.B.b.B.B.s.6 U ;XwXpXpX9X/.-.X S m.m.m.V.O.1 A.3XuXpXyX=XQ.J X ` m.b.m.B...1 F.4XtXyX0X.Xl.M   e } v.m.m.m.m.m.m.m.B.",
"n.m.m.m.B.B.m.m.B.B.v.V N .X3XpXpXrXoX9.$ ) m.m.m.%.P 4.`.tXpXpXyX1X X7.0 $.b.b.b.m.e.M E.tXyXtX<X[.1.f   r | v.m.m.b.b.b.m.B.B.",
"n.m.m.m.m.m.m.m.m.m.B...l ).:XpXpXtX<XL., _ m.b.m._ H (.:XpXpXpXyX0X:XK.L f.v.v.b.m.f.,.'.pXpXtX*XQ.K 8 o r +.v.m.b.b.b.b.m.B.B.",
"n.n.m.m.m.m.m.m.m.m.m.&.S 4.!.wXtXyXrXE.Z ' +.p.m.{ T $X8XpXpXyXyXtXqX_.h.2.+.v.b.m.k.j.XXpXpXqX{.q.< 7 e  .p.v.m.m.b.b.m.m.B.B.",
"n.m.m.m.m.m.m.m.m.m.m.i.^ F K.0XrXyXyX'.*.! W i.m.{ T 1XrXpXpXyXyXyXyX|.x.] Q g.b.m.N.x.@XpXiX9X/.6.+ 7 ^ y.m.m.m.m.m.m.m.B.B.B.",
"B.B.m.m.m.m.m.m.m.m.m.v.O.8 Z.0XrXyXyX'.L ! ~ i.m._ T 1XrXpXpXyXyXyXyX}.x.j { n.b.m.N.z.XXpXpX9X/.6.o 4 ^ y.B.m.m.m.m.m.m.m.m.B.",
"B.B.m.b.b.m.B.B.m.m.m.B.$.1 C.4XrXyXyX'.=.' ~ i.B.o.5.8XrXpX8X8XrXtXyX.XU.g ) v.m.g.k.U.%XpXyX8XQ.4.  4 ~ y.B.m.m.m.m.m.m.m.m.B.",
"B.B.b.b.b.b.B.B.m.m.m.B.O.1 7.;X0XyXyX.X8.2.~ i.N.U.{.pXrX3X].~.:X0XyX1XXXH 0 s.V.O.;.&X8XpX8X&Xx.I   4 ~ y.m.m.m.m.m.m.m.m.m.B.",
"B.B.m.m.m.m.B.m.m.m.m.B.O.1 5. X1XyXyX%XP.>.e %.a.Q.$XpXtX3XI.z.$X3XyX8X;X5.6 %.g.S ;.3XrXpX3X&Xj.K o 7 / y.m.m.m.m.m.m.m.m.m.B.",
"B.m.m.m.m.m.m.m.b.m.b.B.O.< I W.%XyXyX8XoXT o { A |.8XpXtX3Xq.,.}.:XyXrX0XY.> ] e.3 :.pXpXtX4X$X1.M o 7 ( y.m.m.m.m.m.m.m.m.m.B.",
"m.m.m.m.m.m.m.m.m.m.b.m.s.S L 8.'.qXyXwX;X;.* { l OX8XpX8X$XR j q.`.pXtX0X).R C O.g R.pXpXtX$X).M 5 7 S t.g.m.m.m.m.m.m.m.m.m.B.",
"m.m.m.m.m.m.m.m.m.m.m.m.m.t.' K Y.4XyXtX4X5.< ..k OX9XyX:X[.l $ F K.pXtX0X{.K.k o.A @XpXpXtX{.J.* = W #.m.m.m.m.m.m.m.m.m.m.m.n.",
"m.m.m.m.m.m.m.m.m.m.m.m.m.t.i 8 H.<XrXpXrX_.9.H R.wXtXeX XU.s o 3 5.3XrXyX;X X4.A E.>XpXtX3XQ.8.* = Q &.m.m.m.m.m.m.m.m.m.m.m.n.",
"m.m.m.m.m.m.m.m.m.m.m.m.m.u.i , A.<XrXpXyX$X~.H #XpXuX3X].x.s   - T ,XwXpX8X;XJ.h *X9XpXrX<XU.3.% = Q &.m.m.m.m.m.m.m.m.m.m.m.n.",
"m.m.m.m.m.m.m.m.m.m.m.m.B.n._ , A.1XrXpXpX8X^.J.:XpXuX0X).h.6   X N oX8XpXyX0XK.N %X0XpXrX1XP.<.% = Q &.m.m.m.m.m.m.m.b.b.m.m.n.",
"m.m.m.m.B.B.m.m.m.m.m.m.B.B...< A.<XrXpXpXtX{.~.>XpXtX<XQ.3.1 .   N {.>XpXyXrXE.T =X0XpXwX<Xz.>.% = Q r.B.m.m.m.B.B.m.b.m.m.m.n.",
"m.m.m.m.B.B.B.m.m.m.m.m.m.B.s.3 Z.&XeXpXiXyXrX].8XpX8X Xz.L : . . s z. XrXtXyX>X{.<X0XyX3X&X8.G # = / r.M.m.B.B.B.B.m.m.m.m.B.B.",
"m.m.m.m.B.B.B.m.m.m.m.m.m.m.g.V 4.Y.%XtXyXyXtX@XwXtX:X(.6.t 5 ; 5 j ,._.0XtXyX9X%X8X0XrX%X].-.j > q @.y.b.B.M.B.m.m.m.m.m.m.B.B.",
"B.m.m.B.B.m.m.m.m.b.m.m.m.m.m.t.' *.Y.3XwXyXyXyXtX3X Xc.H & e W ( S 8 F.2XrXyXyXyXyXrX1X].x.s & u | v.b.m.m.m.m.m.m.m.m.m.m.B.B.",
"B.m.m.B.B.m.m.m.m.m.m.m.m.m.m.u.' G Y.4XrXyXyXyXtX4X Xl.M o e / u.X.8 F.2XrXyXyXyXyXrX1X/.l.8 O u | b.m.m.m.m.B.m.m.m.m.m.m.B.B.",
"B.B.B.B.B.m.m.m.m.m.m.m.m.m.m.u.' Z Y.4XrXyXyXyXtX8X|.l.M   e / v.O.8 F.<XqXyXyXyXyXrX1XQ.8.1 o u | b.m.m.B.m.m.m.m.m.b.B.B.B.m.",
"B.B.B.B.m.m.m.m.m.m.m.m.m.m.m.v.S < H.,X0XyXyXpXtX1X_.1.f   e ( v.o.3 7.{.;X8XtXyXyXrX1XY.>.: o p +.v.m.m.m.m.m.m.B.B.M.M.B.B.B.",
"B.B.B.m.m.m.m.m.m.m.m.m.m.m.m.B.{ 3 D.&X8XyXyXpXtX<X_.>.w $ i +.v.O.f 4.Y.$X3XtXyXyXqX<XI.L 5 = Q w.v.m.m.m.m.m.m.B.B.M.B.B.B.B.",
"B.B.B.B.m.m.m.m.m.m.m.m.m.m.b.M.g.] z.].>XyXyXpXyX1X_.G a p r.v.v.v.#.] ,.}.8XyXyXyXqX1XK.F i E y.v.b.m.m.m.m.m.m.B.B.B.B.B.B.B.",
"B.B.B.B.m.m.m.m.m.m.b.B.B.m.b.b.v.2.h.P.+XwX9XwX8X XK.9 y ^ y.m.v.v.i.' M _.1X0X0X9X<X X7.f i / g.b.b.m.m.m.m.m.m.m.B.B.B.B.B.B.",
"B.B.m.m.m.m.m.m.m.M.b.M.M.b.b.M.B.r.<.3.).1X<X<X&XW.4.  7 ^ y.m.v.n.B.S 2 E.<X;X,X<X XU.J - y / g.m.b.b.b.m.m.B.B.B.M.B.B.m.m.m.",
"B.m.m.m.m.m.m.m.m.M.b.b.M.b.b.b.B.g.C 1 R q.0.0.0.3.F   7 ^ y.m.m.m.B.V & R 0.0.0.0.8.3.j o e / g.m.m.m.m.m.B.B.B.B.M.M.m.m.m.m.",
"m.m.m.m.m.m.m.m.m.b.b.b.b.b.b.b.m.B.x # 0 Z Z Z Z Z w # q ^ y.m.m.m.B.c # w Z Z Z Z Z F 6 @ r | v.m.m.m.m.m.B.B.B.B.M.m.m.m.m.B.",
"B.m.m.m.m.m.m.m.m.b.M.M.M.b.b.b.b.m.s.E : o o o o o ; p W / y.m.m.m.B.d.Q = O O O O o o 7 E &.v.v.m.m.m.m.m.m.m.B.B.b.m.m.m.m.B.",
"B.m.m.m.m.m.m.m.b.M.M.M.M.m.m.b.b.b.v.#.q ; ; ; ; ; q / } @.p.m.m.M.M.v.w.e ; ; ; ; ; ; e / y.m.m.m.m.m.m.m.m.m.m.b.b.m.m.m.m.m.",
"B.n.m.m.m.m.m.m.m.m.B.B.B.m.m.b.b.b.b.v. .^ ^ ^ ^ ^ / / r.b.m.m.B.B.M.M.v.g./ ^ ^ ^ ^ ^ ^ / y.m.m.m.b.m.m.m.m.m.m.b.m.m.m.m.m.m.",
"B.n.m.m.m.m.m.m.m.m.m.B.m.m.m.b.m.m.b.b.p.y.y.y.y.y.y.y.g.m.m.m.B.B.M.M.M.v.p.y.y.y.y.y.y.y.v.m.m.b.b.m.m.m.m.m.m.b.m.m.m.m.m.m.",
"B.m.m.m.m.m.m.m.m.m.m.B.B.m.m.m.m.m.m.b.m.m.m.m.m.m.b.b.m.m.m.B.B.B.M.M.b.M.m.m.b.b.m.m.m.m.m.m.b.b.m.m.m.m.m.m.b.b.m.m.m.m.m.B.",
"B.m.m.m.m.m.m.m.m.m.m.m.B.m.m.m.m.m.m.B.B.b.b.m.b.b.b.b.m.m.m.b.B.B.B.M.m.b.m.m.b.m.m.m.m.m.b.b.b.B.B.m.m.m.m.m.m.m.m.m.m.m.m.B.",
"B.m.m.m.m.m.m.m.m.m.m.m.m.m.m.b.m.m.m.B.B.B.B.m.m.b.b.b.b.m.m.b.m.m.M.M.b.m.m.b.m.m.m.m.m.m.b.m.m.B.m.B.B.m.m.m.m.m.m.m.m.m.m.B.",
"B.m.m.m.m.m.B.B.B.B.m.B.M.m.b.b.b.B.B.B.B.B.m.m.m.m.m.b.b.b.m.b.b.b.b.b.b.b.b.m.m.m.m.m.m.m.m.m.m.m.m.M.M.M.B.m.m.m.m.m.m.m.m.B.",
"B.m.B.B.B.B.B.B.B.B.B.B.m.m.b.M.M.B.B.B.B.m.m.m.b.b.m.m.m.b.B.b.b.M.M.M.M.M.b.m.m.m.m.m.m.m.m.m.m.m.b.M.B.B.B.m.B.B.m.m.m.m.m.B.",
"B.M.M.B.B.B.M.B.B.B.B.B.B.B.M.M.M.M.B.B.m.m.m.m.b.b.m.m.m.B.B.B.M.M.M.M.M.M.b.m.m.m.m.m.m.m.m.m.m.m.m.B.B.B.m.B.B.m.B.B.B.B.B.B.",
"B.B.B.B.B.M.B.B.B.B.B.B.B.B.M.M.M.b.M.B.m.m.m.m.m.m.m.m.m.B.M.M.M.M.M.M.M.M.B.B.B.m.B.m.m.m.m.m.m.m.m.m.b.b.m.B.m.m.B.M.M.M.B.B.",
"B.B.B.B.B.B.m.B.B.B.B.m.m.m.m.b.m.m.B.m.m.m.m.m.m.m.m.m.B.B.B.B.M.M.M.M.M.M.B.B.B.B.B.B.m.m.m.m.m.b.b.m.m.b.m.m.m.m.m.B.B.B.B.B.",
"B.B.B.B.B.m.m.m.m.m.m.m.m.m.m.m.m.B.B.m.m.m.n.m.m.m.m.m.B.B.B.B.B.M.M.M.M.M.M.B.B.B.m.m.m.m.m.B.B.m.b.b.b.b.b.b.m.m.m.B.B.B.B.B.",
"B.B.B.B.B.B.B.m.m.m.m.m.m.m.m.m.m.m.B.B.B.m.n.m.n.n.m.B.B.B.B.B.B.B.M.M.M.M.M.B.B.B.B.B.B.B.B.B.M.m.b.b.b.m.m.m.m.m.m.m.B.B.B.B.",
"B.B.B.B.B.B.B.B.m.m.m.m.m.m.m.m.m.m.B.B.B.B.B.B.B.n.B.B.B.B.B.B.B.B.B.M.M.B.B.B.B.B.B.B.B.B.B.M.M.B.M.v.B.B.B.B.n.m.B.n.m.m.m.B.",
"B.B.B.B.B.B.B.M.b.b.B.m.m.m.m.B.B.B.B.B.B.B.B.B.B.B.B.M.M.M.M.M.B.B.B.M.B.B.B.B.B.M.M.M.B.B.B.M.B.B.B.B.B.B.B.B.B.B.B.B.B.n.n.m."
};
